%TF.GenerationSoftware,KiCad,Pcbnew,8.0.1-8.0.1-1~ubuntu22.04.1*%
%TF.CreationDate,2024-04-05T09:56:01+02:00*%
%TF.ProjectId,Sequencer,53657175-656e-4636-9572-2e6b69636164,rev?*%
%TF.SameCoordinates,Original*%
%TF.FileFunction,Paste,Top*%
%TF.FilePolarity,Positive*%
%FSLAX46Y46*%
G04 Gerber Fmt 4.6, Leading zero omitted, Abs format (unit mm)*
G04 Created by KiCad (PCBNEW 8.0.1-8.0.1-1~ubuntu22.04.1) date 2024-04-05 09:56:01*
%MOMM*%
%LPD*%
G01*
G04 APERTURE LIST*
G04 Aperture macros list*
%AMRoundRect*
0 Rectangle with rounded corners*
0 $1 Rounding radius*
0 $2 $3 $4 $5 $6 $7 $8 $9 X,Y pos of 4 corners*
0 Add a 4 corners polygon primitive as box body*
4,1,4,$2,$3,$4,$5,$6,$7,$8,$9,$2,$3,0*
0 Add four circle primitives for the rounded corners*
1,1,$1+$1,$2,$3*
1,1,$1+$1,$4,$5*
1,1,$1+$1,$6,$7*
1,1,$1+$1,$8,$9*
0 Add four rect primitives between the rounded corners*
20,1,$1+$1,$2,$3,$4,$5,0*
20,1,$1+$1,$4,$5,$6,$7,0*
20,1,$1+$1,$6,$7,$8,$9,0*
20,1,$1+$1,$8,$9,$2,$3,0*%
G04 Aperture macros list end*
%ADD10R,0.592000X1.920000*%
%ADD11RoundRect,0.112000X-0.136000X0.112000X-0.136000X-0.112000X0.136000X-0.112000X0.136000X0.112000X0*%
%ADD12RoundRect,0.108000X0.148000X-0.108000X0.148000X0.108000X-0.148000X0.108000X-0.148000X-0.108000X0*%
%ADD13RoundRect,0.120000X-0.700000X-0.120000X0.700000X-0.120000X0.700000X0.120000X-0.700000X0.120000X0*%
%ADD14RoundRect,0.108000X0.108000X0.148000X-0.108000X0.148000X-0.108000X-0.148000X0.108000X-0.148000X0*%
%ADD15RoundRect,0.080000X-0.720000X-0.640000X0.720000X-0.640000X0.720000X0.640000X-0.720000X0.640000X0*%
%ADD16RoundRect,0.112000X0.112000X0.136000X-0.112000X0.136000X-0.112000X-0.136000X0.112000X-0.136000X0*%
%ADD17RoundRect,0.180000X-0.200000X0.180000X-0.200000X-0.180000X0.200000X-0.180000X0.200000X0.180000X0*%
%ADD18RoundRect,0.108000X-0.108000X-0.148000X0.108000X-0.148000X0.108000X0.148000X-0.108000X0.148000X0*%
%ADD19RoundRect,0.112000X0.136000X-0.112000X0.136000X0.112000X-0.136000X0.112000X-0.136000X-0.112000X0*%
%ADD20RoundRect,0.060000X0.060000X-0.560000X0.060000X0.560000X-0.060000X0.560000X-0.060000X-0.560000X0*%
%ADD21RoundRect,0.060000X0.560000X-0.060000X0.560000X0.060000X-0.560000X0.060000X-0.560000X-0.060000X0*%
%ADD22RoundRect,0.108000X-0.148000X0.108000X-0.148000X-0.108000X0.148000X-0.108000X0.148000X0.108000X0*%
%ADD23RoundRect,0.080000X-0.510000X-0.080000X0.510000X-0.080000X0.510000X0.080000X-0.510000X0.080000X0*%
%ADD24R,1.240000X1.040000*%
%ADD25RoundRect,0.175000X-0.175000X-0.205000X0.175000X-0.205000X0.175000X0.205000X-0.175000X0.205000X0*%
%ADD26RoundRect,0.112000X-0.112000X-0.136000X0.112000X-0.136000X0.112000X0.136000X-0.112000X0.136000X0*%
%ADD27RoundRect,0.080000X0.510000X0.080000X-0.510000X0.080000X-0.510000X-0.080000X0.510000X-0.080000X0*%
%ADD28RoundRect,0.120000X-0.120000X0.410000X-0.120000X-0.410000X0.120000X-0.410000X0.120000X0.410000X0*%
%ADD29R,0.480000X1.160000*%
%ADD30R,0.240000X1.160000*%
%ADD31RoundRect,0.120000X0.120000X-0.700000X0.120000X0.700000X-0.120000X0.700000X-0.120000X-0.700000X0*%
%ADD32RoundRect,0.300000X0.500000X0.300000X-0.500000X0.300000X-0.500000X-0.300000X0.500000X-0.300000X0*%
%ADD33RoundRect,0.400000X0.400000X1.120000X-0.400000X1.120000X-0.400000X-1.120000X0.400000X-1.120000X0*%
%ADD34R,0.960000X2.000000*%
G04 APERTURE END LIST*
D10*
%TO.C,J301*%
X224310000Y-53550000D03*
X224310000Y-57450000D03*
X223040000Y-53550000D03*
X223040000Y-57450000D03*
X221770000Y-53550000D03*
X221770000Y-57450000D03*
X220500000Y-53550000D03*
X220500000Y-57450000D03*
X219230000Y-53550000D03*
X219230000Y-57450000D03*
X217960000Y-53550000D03*
X217960000Y-57450000D03*
X216690000Y-53550000D03*
X216690000Y-57450000D03*
%TD*%
D11*
%TO.C,C201*%
X252600000Y-107970000D03*
X252600000Y-108930000D03*
%TD*%
%TO.C,C202*%
X253580000Y-107990000D03*
X253580000Y-108950000D03*
%TD*%
D12*
%TO.C,R3*%
X253050000Y-107010000D03*
X253050000Y-105990000D03*
%TD*%
%TO.C,R4*%
X251950000Y-107010000D03*
X251950000Y-105990000D03*
%TD*%
D13*
%TO.C,U401*%
X188250000Y-116245000D03*
X188250000Y-117515000D03*
X188250000Y-118785000D03*
X188250000Y-120055000D03*
X188250000Y-121325000D03*
X188250000Y-122595000D03*
X188250000Y-123865000D03*
X188250000Y-125135000D03*
X188250000Y-126405000D03*
X188250000Y-127675000D03*
X188250000Y-128945000D03*
X188250000Y-130215000D03*
X188250000Y-131485000D03*
X188250000Y-132755000D03*
X197550000Y-132755000D03*
X197550000Y-131485000D03*
X197550000Y-130215000D03*
X197550000Y-128945000D03*
X197550000Y-127675000D03*
X197550000Y-126405000D03*
X197550000Y-125135000D03*
X197550000Y-123865000D03*
X197550000Y-122595000D03*
X197550000Y-121325000D03*
X197550000Y-120055000D03*
X197550000Y-118785000D03*
X197550000Y-117515000D03*
X197550000Y-116245000D03*
%TD*%
D14*
%TO.C,R450*%
X178410000Y-166600000D03*
X177390000Y-166600000D03*
%TD*%
D15*
%TO.C,SW101*%
X264300000Y-56500000D03*
X278300000Y-56500000D03*
X264300000Y-61500000D03*
X278300000Y-61500000D03*
%TD*%
D16*
%TO.C,C406*%
X209280000Y-141500000D03*
X208320000Y-141500000D03*
%TD*%
D17*
%TO.C,C602*%
X189800000Y-59825000D03*
X189800000Y-61375000D03*
%TD*%
D16*
%TO.C,C204*%
X246580000Y-86000000D03*
X245620000Y-86000000D03*
%TD*%
D14*
%TO.C,R458*%
X253010000Y-166500000D03*
X251990000Y-166500000D03*
%TD*%
D16*
%TO.C,C307*%
X212580000Y-81600000D03*
X211620000Y-81600000D03*
%TD*%
D11*
%TO.C,C306*%
X204300000Y-81540000D03*
X204300000Y-82500000D03*
%TD*%
D18*
%TO.C,R411*%
X115290000Y-141600000D03*
X116310000Y-141600000D03*
%TD*%
%TO.C,R102*%
X261090000Y-56500000D03*
X262110000Y-56500000D03*
%TD*%
%TO.C,R413*%
X135290000Y-141600000D03*
X136310000Y-141600000D03*
%TD*%
%TO.C,R421*%
X230080000Y-141500000D03*
X231100000Y-141500000D03*
%TD*%
D19*
%TO.C,C503*%
X165700000Y-70260000D03*
X165700000Y-69300000D03*
%TD*%
D14*
%TO.C,R460*%
X198420000Y-166600000D03*
X197400000Y-166600000D03*
%TD*%
D20*
%TO.C,U301*%
X204300000Y-79750000D03*
X204800000Y-79750000D03*
X205300000Y-79750000D03*
X205800000Y-79750000D03*
X206300000Y-79750000D03*
X206800000Y-79750000D03*
X207300000Y-79750000D03*
X207800000Y-79750000D03*
X208300000Y-79750000D03*
X208800000Y-79750000D03*
X209300000Y-79750000D03*
X209800000Y-79750000D03*
X210300000Y-79750000D03*
X210800000Y-79750000D03*
X211300000Y-79750000D03*
X211800000Y-79750000D03*
D21*
X213725000Y-77825000D03*
X213725000Y-77325000D03*
X213725000Y-76825000D03*
X213725000Y-76325000D03*
X213725000Y-75825000D03*
X213725000Y-75325000D03*
X213725000Y-74825000D03*
X213725000Y-74325000D03*
X213725000Y-73825000D03*
X213725000Y-73325000D03*
X213725000Y-72825000D03*
X213725000Y-72325000D03*
X213725000Y-71825000D03*
X213725000Y-71325000D03*
X213725000Y-70825000D03*
X213725000Y-70325000D03*
D20*
X211800000Y-68400000D03*
X211300000Y-68400000D03*
X210800000Y-68400000D03*
X210300000Y-68400000D03*
X209800000Y-68400000D03*
X209300000Y-68400000D03*
X208800000Y-68400000D03*
X208300000Y-68400000D03*
X207800000Y-68400000D03*
X207300000Y-68400000D03*
X206800000Y-68400000D03*
X206300000Y-68400000D03*
X205800000Y-68400000D03*
X205300000Y-68400000D03*
X204800000Y-68400000D03*
X204300000Y-68400000D03*
D21*
X202375000Y-70325000D03*
X202375000Y-70825000D03*
X202375000Y-71325000D03*
X202375000Y-71825000D03*
X202375000Y-72325000D03*
X202375000Y-72825000D03*
X202375000Y-73325000D03*
X202375000Y-73825000D03*
X202375000Y-74325000D03*
X202375000Y-74825000D03*
X202375000Y-75325000D03*
X202375000Y-75825000D03*
X202375000Y-76325000D03*
X202375000Y-76825000D03*
X202375000Y-77325000D03*
X202375000Y-77825000D03*
%TD*%
D22*
%TO.C,R303*%
X217960000Y-61330000D03*
X217960000Y-60310000D03*
%TD*%
D18*
%TO.C,R101*%
X261190000Y-58900000D03*
X262210000Y-58900000D03*
%TD*%
D16*
%TO.C,C407*%
X229180000Y-141500000D03*
X228220000Y-141500000D03*
%TD*%
D14*
%TO.C,R308*%
X197497500Y-68000000D03*
X196477500Y-68000000D03*
%TD*%
D19*
%TO.C,C507*%
X165800000Y-87280000D03*
X165800000Y-86320000D03*
%TD*%
D23*
%TO.C,U404*%
X148137500Y-125775000D03*
X148137500Y-126425000D03*
X148137500Y-127075000D03*
X148137500Y-127725000D03*
X148137500Y-128375000D03*
X148137500Y-129025000D03*
X148137500Y-129675000D03*
X148137500Y-130325000D03*
X148137500Y-130975000D03*
X148137500Y-131625000D03*
X148137500Y-132275000D03*
X148137500Y-132925000D03*
X148137500Y-133575000D03*
X148137500Y-134225000D03*
X153862500Y-134225000D03*
X153862500Y-133575000D03*
X153862500Y-132925000D03*
X153862500Y-132275000D03*
X153862500Y-131625000D03*
X153862500Y-130975000D03*
X153862500Y-130325000D03*
X153862500Y-129675000D03*
X153862500Y-129025000D03*
X153862500Y-128375000D03*
X153862500Y-127725000D03*
X153862500Y-127075000D03*
X153862500Y-126425000D03*
X153862500Y-125775000D03*
%TD*%
D14*
%TO.C,R414*%
X138400000Y-141600000D03*
X137380000Y-141600000D03*
%TD*%
D22*
%TO.C,R402*%
X155700000Y-127980000D03*
X155700000Y-129000000D03*
%TD*%
D19*
%TO.C,C515*%
X181700000Y-103160000D03*
X181700000Y-102200000D03*
%TD*%
D11*
%TO.C,C301*%
X218800000Y-70980000D03*
X218800000Y-71940000D03*
%TD*%
D19*
%TO.C,C502*%
X150100000Y-70260000D03*
X150100000Y-69300000D03*
%TD*%
D14*
%TO.C,R457*%
X233120000Y-166500000D03*
X232100000Y-166500000D03*
%TD*%
D19*
%TO.C,C512*%
X149700000Y-103260000D03*
X149700000Y-102300000D03*
%TD*%
D14*
%TO.C,R456*%
X213020000Y-166500000D03*
X212000000Y-166500000D03*
%TD*%
D19*
%TO.C,C505*%
X133800000Y-87380000D03*
X133800000Y-86420000D03*
%TD*%
D16*
%TO.C,C411*%
X149280000Y-166500000D03*
X148320000Y-166500000D03*
%TD*%
D18*
%TO.C,R417*%
X175290000Y-141500000D03*
X176310000Y-141500000D03*
%TD*%
D14*
%TO.C,R426*%
X253100000Y-141500000D03*
X252080000Y-141500000D03*
%TD*%
D18*
%TO.C,R445*%
X135190000Y-166600000D03*
X136210000Y-166600000D03*
%TD*%
D14*
%TO.C,R408*%
X133220000Y-141500000D03*
X132200000Y-141500000D03*
%TD*%
D16*
%TO.C,C416*%
X249160000Y-166500000D03*
X248200000Y-166500000D03*
%TD*%
D14*
%TO.C,R462*%
X218320000Y-166600000D03*
X217300000Y-166600000D03*
%TD*%
%TO.C,R309*%
X197497500Y-66400000D03*
X196477500Y-66400000D03*
%TD*%
D19*
%TO.C,C513*%
X165700000Y-103260000D03*
X165700000Y-102300000D03*
%TD*%
%TO.C,C508*%
X181800000Y-87160000D03*
X181800000Y-86200000D03*
%TD*%
D14*
%TO.C,R425*%
X233020000Y-141500000D03*
X232000000Y-141500000D03*
%TD*%
D18*
%TO.C,R459*%
X195190000Y-166600000D03*
X196210000Y-166600000D03*
%TD*%
%TO.C,R453*%
X230180000Y-166500000D03*
X231200000Y-166500000D03*
%TD*%
D24*
%TO.C,SW303*%
X236225000Y-57450000D03*
X244175000Y-57450000D03*
X236225000Y-61950000D03*
X244175000Y-61950000D03*
%TD*%
D16*
%TO.C,C402*%
X129280000Y-141500000D03*
X128320000Y-141500000D03*
%TD*%
D22*
%TO.C,R304*%
X199175000Y-77050000D03*
X199175000Y-78070000D03*
%TD*%
D14*
%TO.C,R442*%
X173010000Y-166500000D03*
X171990000Y-166500000D03*
%TD*%
D16*
%TO.C,C410*%
X129100000Y-166500000D03*
X128140000Y-166500000D03*
%TD*%
D12*
%TO.C,R401*%
X219400000Y-129990000D03*
X219400000Y-131010000D03*
%TD*%
D14*
%TO.C,R407*%
X113010000Y-141500000D03*
X111990000Y-141500000D03*
%TD*%
D25*
%TO.C,D301*%
X193700000Y-69600000D03*
X195275000Y-69600000D03*
%TD*%
D14*
%TO.C,R310*%
X257010000Y-66000000D03*
X255990000Y-66000000D03*
%TD*%
D19*
%TO.C,C310*%
X234660000Y-60290000D03*
X234660000Y-59330000D03*
%TD*%
D18*
%TO.C,R429*%
X215190000Y-141600000D03*
X216210000Y-141600000D03*
%TD*%
%TO.C,R463*%
X235290000Y-166500000D03*
X236310000Y-166500000D03*
%TD*%
D14*
%TO.C,R410*%
X173110000Y-141500000D03*
X172090000Y-141500000D03*
%TD*%
D16*
%TO.C,C308*%
X256980000Y-68400000D03*
X256020000Y-68400000D03*
%TD*%
D19*
%TO.C,C501*%
X133700000Y-70280000D03*
X133700000Y-69320000D03*
%TD*%
D14*
%TO.C,R455*%
X193220000Y-166500000D03*
X192200000Y-166500000D03*
%TD*%
D11*
%TO.C,C205*%
X245420000Y-107990000D03*
X245420000Y-108950000D03*
%TD*%
D14*
%TO.C,R412*%
X118410000Y-141600000D03*
X117390000Y-141600000D03*
%TD*%
D16*
%TO.C,C401*%
X109080000Y-141500000D03*
X108120000Y-141500000D03*
%TD*%
D14*
%TO.C,R428*%
X198310000Y-141600000D03*
X197290000Y-141600000D03*
%TD*%
%TO.C,R430*%
X218410000Y-141600000D03*
X217390000Y-141600000D03*
%TD*%
%TO.C,R418*%
X178310000Y-141500000D03*
X177290000Y-141500000D03*
%TD*%
D18*
%TO.C,R454*%
X250090000Y-166500000D03*
X251110000Y-166500000D03*
%TD*%
%TO.C,R465*%
X255290000Y-166600000D03*
X256310000Y-166600000D03*
%TD*%
%TO.C,R451*%
X190280000Y-166500000D03*
X191300000Y-166500000D03*
%TD*%
D19*
%TO.C,C509*%
X158000000Y-56680000D03*
X158000000Y-55720000D03*
%TD*%
D14*
%TO.C,R448*%
X158410000Y-166600000D03*
X157390000Y-166600000D03*
%TD*%
%TO.C,R311*%
X257010000Y-63900000D03*
X255990000Y-63900000D03*
%TD*%
D18*
%TO.C,R415*%
X155290000Y-141600000D03*
X156310000Y-141600000D03*
%TD*%
D16*
%TO.C,C413*%
X189380000Y-166480000D03*
X188420000Y-166480000D03*
%TD*%
D11*
%TO.C,C309*%
X201300000Y-79320000D03*
X201300000Y-80280000D03*
%TD*%
D14*
%TO.C,R446*%
X138310000Y-166600000D03*
X137290000Y-166600000D03*
%TD*%
D22*
%TO.C,R301*%
X213500000Y-60790000D03*
X213500000Y-61810000D03*
%TD*%
D14*
%TO.C,R439*%
X113110000Y-166500000D03*
X112090000Y-166500000D03*
%TD*%
D18*
%TO.C,R433*%
X255290000Y-141600000D03*
X256310000Y-141600000D03*
%TD*%
D16*
%TO.C,C414*%
X209200000Y-166500000D03*
X208240000Y-166500000D03*
%TD*%
D14*
%TO.C,R464*%
X238310000Y-166500000D03*
X237290000Y-166500000D03*
%TD*%
D24*
%TO.C,SW302*%
X246525000Y-63850000D03*
X254475000Y-63850000D03*
X246525000Y-68350000D03*
X254475000Y-68350000D03*
%TD*%
D14*
%TO.C,R306*%
X197497500Y-69600000D03*
X196477500Y-69600000D03*
%TD*%
D18*
%TO.C,R449*%
X175290000Y-166600000D03*
X176310000Y-166600000D03*
%TD*%
D16*
%TO.C,C412*%
X169160000Y-166500000D03*
X168200000Y-166500000D03*
%TD*%
D22*
%TO.C,R302*%
X211800000Y-60790000D03*
X211800000Y-61810000D03*
%TD*%
D19*
%TO.C,C511*%
X142200000Y-56760000D03*
X142200000Y-55800000D03*
%TD*%
D18*
%TO.C,R435*%
X110190000Y-166500000D03*
X111210000Y-166500000D03*
%TD*%
D19*
%TO.C,C504*%
X182200000Y-70200000D03*
X182200000Y-69240000D03*
%TD*%
D18*
%TO.C,R419*%
X190190000Y-141500000D03*
X191210000Y-141500000D03*
%TD*%
D12*
%TO.C,R1*%
X245410000Y-107040000D03*
X245410000Y-106020000D03*
%TD*%
D18*
%TO.C,R406*%
X170190000Y-141500000D03*
X171210000Y-141500000D03*
%TD*%
D25*
%TO.C,D302*%
X193700000Y-68000000D03*
X195275000Y-68000000D03*
%TD*%
D16*
%TO.C,C408*%
X249270000Y-141500000D03*
X248310000Y-141500000D03*
%TD*%
D14*
%TO.C,R441*%
X153110000Y-166500000D03*
X152090000Y-166500000D03*
%TD*%
D26*
%TO.C,C302*%
X203720000Y-66700000D03*
X204680000Y-66700000D03*
%TD*%
D18*
%TO.C,R447*%
X155190000Y-166600000D03*
X156210000Y-166600000D03*
%TD*%
%TO.C,R431*%
X235290000Y-141600000D03*
X236310000Y-141600000D03*
%TD*%
D16*
%TO.C,C303*%
X256980000Y-77600000D03*
X256020000Y-77600000D03*
%TD*%
D27*
%TO.C,U402*%
X226662500Y-133325000D03*
X226662500Y-132675000D03*
X226662500Y-132025000D03*
X226662500Y-131375000D03*
X226662500Y-130725000D03*
X226662500Y-130075000D03*
X226662500Y-129425000D03*
X226662500Y-128775000D03*
X226662500Y-128125000D03*
X226662500Y-127475000D03*
X226662500Y-126825000D03*
X226662500Y-126175000D03*
X226662500Y-125525000D03*
X226662500Y-124875000D03*
X220937500Y-124875000D03*
X220937500Y-125525000D03*
X220937500Y-126175000D03*
X220937500Y-126825000D03*
X220937500Y-127475000D03*
X220937500Y-128125000D03*
X220937500Y-128775000D03*
X220937500Y-129425000D03*
X220937500Y-130075000D03*
X220937500Y-130725000D03*
X220937500Y-131375000D03*
X220937500Y-132025000D03*
X220937500Y-132675000D03*
X220937500Y-133325000D03*
%TD*%
D22*
%TO.C,R601*%
X207700000Y-60290000D03*
X207700000Y-61310000D03*
%TD*%
D11*
%TO.C,C305*%
X216800000Y-71000000D03*
X216800000Y-71960000D03*
%TD*%
D14*
%TO.C,R424*%
X213220000Y-141500000D03*
X212200000Y-141500000D03*
%TD*%
D25*
%TO.C,D303*%
X193700000Y-66400000D03*
X195275000Y-66400000D03*
%TD*%
D19*
%TO.C,C510*%
X133700000Y-103160000D03*
X133700000Y-102200000D03*
%TD*%
D14*
%TO.C,R434*%
X258310000Y-141600000D03*
X257290000Y-141600000D03*
%TD*%
D18*
%TO.C,R438*%
X170080000Y-166500000D03*
X171100000Y-166500000D03*
%TD*%
%TO.C,R404*%
X130180000Y-141500000D03*
X131200000Y-141500000D03*
%TD*%
D11*
%TO.C,C304*%
X217800000Y-71000000D03*
X217800000Y-71960000D03*
%TD*%
D18*
%TO.C,R461*%
X215090000Y-166600000D03*
X216110000Y-166600000D03*
%TD*%
%TO.C,R405*%
X150190000Y-141500000D03*
X151210000Y-141500000D03*
%TD*%
D12*
%TO.C,R2*%
X244310000Y-107030000D03*
X244310000Y-106010000D03*
%TD*%
D18*
%TO.C,R436*%
X130090000Y-166500000D03*
X131110000Y-166500000D03*
%TD*%
D17*
%TO.C,C601*%
X189800000Y-56825000D03*
X189800000Y-58375000D03*
%TD*%
D26*
%TO.C,C207*%
X285840000Y-68000000D03*
X286800000Y-68000000D03*
%TD*%
D16*
%TO.C,C415*%
X229180000Y-166500000D03*
X228220000Y-166500000D03*
%TD*%
D12*
%TO.C,R602*%
X203300000Y-61210000D03*
X203300000Y-60190000D03*
%TD*%
D18*
%TO.C,R420*%
X210190000Y-141500000D03*
X211210000Y-141500000D03*
%TD*%
D16*
%TO.C,C404*%
X169300000Y-141500000D03*
X168340000Y-141500000D03*
%TD*%
D18*
%TO.C,R427*%
X195290000Y-141600000D03*
X196310000Y-141600000D03*
%TD*%
D16*
%TO.C,C203*%
X251560000Y-86000000D03*
X250600000Y-86000000D03*
%TD*%
D18*
%TO.C,R437*%
X150190000Y-166500000D03*
X151210000Y-166500000D03*
%TD*%
D16*
%TO.C,C405*%
X189310000Y-141500000D03*
X188350000Y-141500000D03*
%TD*%
D18*
%TO.C,R452*%
X210090000Y-166500000D03*
X211110000Y-166500000D03*
%TD*%
D28*
%TO.C,U602*%
X206450000Y-61725000D03*
X205500000Y-61725000D03*
X204550000Y-61725000D03*
X204550000Y-64000000D03*
X205500000Y-64000000D03*
X206450000Y-64000000D03*
%TD*%
D24*
%TO.C,SW301*%
X246525000Y-72950000D03*
X254475000Y-72950000D03*
X246525000Y-77450000D03*
X254475000Y-77450000D03*
%TD*%
D14*
%TO.C,R307*%
X257010000Y-72900000D03*
X255990000Y-72900000D03*
%TD*%
%TO.C,R440*%
X133020000Y-166500000D03*
X132000000Y-166500000D03*
%TD*%
D26*
%TO.C,C101*%
X261120000Y-61400000D03*
X262080000Y-61400000D03*
%TD*%
D29*
%TO.C,J601*%
X208750000Y-58545000D03*
X207950000Y-58545000D03*
D30*
X206750000Y-58545000D03*
X205750000Y-58545000D03*
X205250000Y-58545000D03*
X204250000Y-58545000D03*
D29*
X203050000Y-58545000D03*
X202250000Y-58545000D03*
X202250000Y-58545000D03*
X203050000Y-58545000D03*
D30*
X203750000Y-58545000D03*
X204750000Y-58545000D03*
X206250000Y-58545000D03*
X207250000Y-58545000D03*
D29*
X207950000Y-58545000D03*
X208750000Y-58545000D03*
%TD*%
D31*
%TO.C,U403*%
X116845000Y-127150000D03*
X118115000Y-127150000D03*
X119385000Y-127150000D03*
X120655000Y-127150000D03*
X121925000Y-127150000D03*
X123195000Y-127150000D03*
X124465000Y-127150000D03*
X125735000Y-127150000D03*
X127005000Y-127150000D03*
X128275000Y-127150000D03*
X129545000Y-127150000D03*
X130815000Y-127150000D03*
X132085000Y-127150000D03*
X133355000Y-127150000D03*
X133355000Y-117850000D03*
X132085000Y-117850000D03*
X130815000Y-117850000D03*
X129545000Y-117850000D03*
X128275000Y-117850000D03*
X127005000Y-117850000D03*
X125735000Y-117850000D03*
X124465000Y-117850000D03*
X123195000Y-117850000D03*
X121925000Y-117850000D03*
X120655000Y-117850000D03*
X119385000Y-117850000D03*
X118115000Y-117850000D03*
X116845000Y-117850000D03*
%TD*%
D18*
%TO.C,R201*%
X285825000Y-67000000D03*
X286845000Y-67000000D03*
%TD*%
D32*
%TO.C,U601*%
X187750000Y-62100000D03*
X187750000Y-59800000D03*
D33*
X181450000Y-59800000D03*
D32*
X187750000Y-57500000D03*
%TD*%
D18*
%TO.C,R422*%
X250180000Y-141500000D03*
X251200000Y-141500000D03*
%TD*%
D14*
%TO.C,R466*%
X258310000Y-166600000D03*
X257290000Y-166600000D03*
%TD*%
%TO.C,R409*%
X153110000Y-141500000D03*
X152090000Y-141500000D03*
%TD*%
D16*
%TO.C,C514*%
X285000000Y-97850000D03*
X284040000Y-97850000D03*
%TD*%
D14*
%TO.C,R444*%
X118410000Y-166600000D03*
X117390000Y-166600000D03*
%TD*%
D18*
%TO.C,R443*%
X115190000Y-166600000D03*
X116210000Y-166600000D03*
%TD*%
D16*
%TO.C,C409*%
X109280000Y-166500000D03*
X108320000Y-166500000D03*
%TD*%
D18*
%TO.C,R403*%
X110090000Y-141500000D03*
X111110000Y-141500000D03*
%TD*%
D16*
%TO.C,C403*%
X149280000Y-141500000D03*
X148320000Y-141500000D03*
%TD*%
D14*
%TO.C,R305*%
X257000000Y-75100000D03*
X255980000Y-75100000D03*
%TD*%
%TO.C,R432*%
X238310000Y-141600000D03*
X237290000Y-141600000D03*
%TD*%
D34*
%TO.C,J101*%
X293700000Y-67450000D03*
X296700000Y-67450000D03*
X288600000Y-60950000D03*
X289700000Y-67450000D03*
%TD*%
D19*
%TO.C,C506*%
X150100000Y-87260000D03*
X150100000Y-86300000D03*
%TD*%
D14*
%TO.C,R423*%
X193210000Y-141500000D03*
X192190000Y-141500000D03*
%TD*%
%TO.C,R416*%
X158310000Y-141600000D03*
X157290000Y-141600000D03*
%TD*%
D11*
%TO.C,C206*%
X246520000Y-108970000D03*
X246520000Y-108010000D03*
%TD*%
%TO.C,C516*%
X269800000Y-88020000D03*
X269800000Y-88980000D03*
%TD*%
M02*
