M48
; DRILL file {KiCad 8.0.1-8.0.1-1~ubuntu22.04.1} date 2024-04-05T09:56:02+0200
; FORMAT={-:-/ absolute / inch / decimal}
; #@! TF.CreationDate,2024-04-05T09:56:02+02:00
; #@! TF.GenerationSoftware,Kicad,Pcbnew,8.0.1-8.0.1-1~ubuntu22.04.1
; #@! TF.FileFunction,NonPlated,1,4,NPTH
FMAT,2
INCH
; #@! TA.AperFunction,NonPlated,NPTH,ComponentDrill
T1C0.0256
; #@! TA.AperFunction,NonPlated,NPTH,ComponentDrill
T2C0.0512
; #@! TA.AperFunction,NonPlated,NPTH,ComponentDrill
T3C0.0591
; #@! TA.AperFunction,NonPlated,NPTH,ComponentDrill
T4C0.0787
%
G90
G05
T1
X7.9768Y-2.248
X8.2043Y-2.248
T2
X4.2776Y-5.6555
X4.2776Y-6.1555
X4.2776Y-6.6398
X4.2776Y-7.1398
X4.7776Y-5.6555
X4.7776Y-6.1555
X4.7776Y-6.6398
X4.7776Y-7.1398
X5.065Y-5.6555
X5.065Y-6.1555
X5.065Y-6.6398
X5.065Y-7.1398
X5.565Y-5.6555
X5.565Y-6.1555
X5.565Y-6.6398
X5.565Y-7.1398
X5.8524Y-5.6555
X5.8524Y-6.1555
X5.8524Y-6.6398
X5.8524Y-7.1398
X6.3524Y-5.6555
X6.3524Y-6.1555
X6.3524Y-6.6398
X6.3524Y-7.1398
X6.6398Y-5.6555
X6.6398Y-6.1555
X6.6398Y-6.6398
X6.6398Y-7.1398
X7.1398Y-5.6555
X7.1398Y-6.1555
X7.1398Y-6.6398
X7.1398Y-7.1398
X7.4272Y-5.6555
X7.4272Y-6.1555
X7.4272Y-6.6398
X7.4272Y-7.1398
X7.9272Y-5.6555
X7.9272Y-6.1555
X7.9272Y-6.6398
X7.9272Y-7.1398
X8.2146Y-5.6555
X8.2146Y-6.1555
X8.2146Y-6.6398
X8.2146Y-7.1398
X8.7146Y-5.6555
X8.7146Y-6.1555
X8.7146Y-6.6398
X8.7146Y-7.1398
X9.002Y-5.6555
X9.002Y-6.1555
X9.002Y-6.6398
X9.002Y-7.1398
X9.502Y-5.6555
X9.502Y-6.1555
X9.502Y-6.6398
X9.502Y-7.1398
X9.7894Y-5.6555
X9.7894Y-6.1555
X9.7894Y-6.6398
X9.7894Y-7.1398
X10.2894Y-5.6555
X10.2894Y-6.1555
X10.2894Y-6.6398
X10.2894Y-7.1398
T3
X11.4685Y-2.5276
X11.7441Y-2.5276
T4
X4.9213Y-2.622
X4.9213Y-2.9685
X4.9213Y-3.2913
X4.9213Y-3.6378
X4.9213Y-3.9213
X4.9213Y-4.2677
X5.2362Y-2.0906
X5.2362Y-2.437
X5.5512Y-2.622
X5.5512Y-2.9685
X5.5512Y-3.2913
X5.5512Y-3.6378
X5.5512Y-3.9213
X5.5512Y-4.2677
X5.8661Y-2.0906
X5.8661Y-2.437
X6.1811Y-2.622
X6.1811Y-2.9685
X6.1811Y-3.2913
X6.1811Y-3.6378
X6.1811Y-3.9213
X6.1811Y-4.2677
X6.811Y-2.622
X6.811Y-2.9685
X6.811Y-3.2913
X6.811Y-3.6378
X6.811Y-3.9213
X6.811Y-4.2677
X10.9705Y-3.2598
X10.9705Y-3.6063
M30
