M48
; DRILL file {KiCad 8.0.1-8.0.1-1~ubuntu22.04.1} date 2024-04-05T09:56:02+0200
; FORMAT={-:-/ absolute / inch / decimal}
; #@! TF.CreationDate,2024-04-05T09:56:02+02:00
; #@! TF.GenerationSoftware,Kicad,Pcbnew,8.0.1-8.0.1-1~ubuntu22.04.1
; #@! TF.FileFunction,Plated,1,4,PTH
FMAT,2
INCH
; #@! TA.AperFunction,Plated,PTH,ViaDrill
T1C0.0118
; #@! TA.AperFunction,Plated,PTH,ComponentDrill
T2C0.0197
; #@! TA.AperFunction,Plated,PTH,ComponentDrill
T3C0.0236
; #@! TA.AperFunction,Plated,PTH,ComponentDrill
T4C0.0315
; #@! TA.AperFunction,Plated,PTH,ComponentDrill
T5C0.0394
; #@! TA.AperFunction,Plated,PTH,ComponentDrill
T6C0.0590
; #@! TA.AperFunction,Plated,PTH,ComponentDrill
T7C0.0728
; #@! TA.AperFunction,Plated,PTH,ComponentDrill
T8C0.0790
; #@! TA.AperFunction,Plated,PTH,ComponentDrill
T9C0.1260
%
G90
G05
T1
X3.9665Y-2.1654
X3.9665Y-2.3622
X3.9665Y-2.5591
X3.9665Y-2.7559
X3.9665Y-2.9528
X3.9665Y-3.1496
X3.9665Y-3.3465
X3.9665Y-3.5433
X3.9665Y-3.7402
X3.9665Y-3.937
X3.9665Y-4.1339
X3.9665Y-4.3307
X3.9665Y-4.5276
X3.9665Y-4.7244
X3.9665Y-4.9213
X3.9665Y-5.1181
X3.9665Y-5.315
X3.9665Y-5.5118
X3.9665Y-5.7087
X3.9665Y-5.9055
X3.9665Y-6.1024
X3.9665Y-6.2992
X3.9665Y-6.4961
X3.9665Y-6.6929
X3.9665Y-6.8898
X3.9665Y-7.0866
X3.9665Y-7.2835
X3.9665Y-7.4803
X3.9665Y-7.6772
X4.0157Y-2.0472
X4.0256Y-7.7953
X4.1339Y-2.0
X4.1339Y-7.8445
X4.2244Y-5.5709
X4.2402Y-6.5551
X4.2992Y-5.5079
X4.3024Y-6.5236
X4.3197Y-6.4307
X4.3299Y-3.7669
X4.3307Y-2.0
X4.3307Y-7.8445
X4.3406Y-3.0815
X4.3878Y-6.4843
X4.4764Y-6.5551
X4.4783Y-5.5709
X4.5276Y-2.0
X4.5276Y-7.8445
X4.5693Y-6.3102
X4.5772Y-5.4224
X4.6394Y-6.3602
X4.6937Y-4.4406
X4.7071Y-5.4181
X4.7244Y-2.0
X4.7244Y-7.8445
X4.8002Y-4.5846
X4.8002Y-4.9528
X4.8504Y-4.5856
X4.8504Y-4.9528
X4.8976Y-4.9528
X4.8988Y-5.1173
X4.9016Y-4.5837
X4.9016Y-6.2201
X4.9213Y-2.0
X4.9213Y-7.8445
X4.9459Y-4.9498
X4.9502Y-4.5846
X4.9787Y-5.1492
X5.0Y-5.0669
X5.0039Y-4.5748
X5.0157Y-6.5551
X5.0276Y-5.5709
X5.0512Y-4.5748
X5.0512Y-5.0669
X5.0886Y-6.4843
X5.0906Y-5.4921
X5.1024Y-4.7165
X5.1181Y-2.0
X5.1181Y-7.8445
X5.1217Y-6.5256
X5.163Y-4.9043
X5.1732Y-4.5787
X5.2008Y-3.9291
X5.2492Y-4.9378
X5.2638Y-5.5709
X5.2638Y-6.5551
X5.2772Y-6.5043
X5.2874Y-4.6417
X5.315Y-2.0
X5.315Y-7.8445
X5.3358Y-6.2988
X5.3398Y-5.4043
X5.3425Y-5.1492
X5.3453Y-6.4205
X5.4374Y-6.3366
X5.4378Y-5.1795
X5.4425Y-5.4028
X5.4539Y-6.5008
X5.5118Y-2.0
X5.5118Y-7.8445
X5.6043Y-5.4197
X5.6043Y-5.5063
X5.6831Y-5.2236
X5.7087Y-2.0
X5.7087Y-7.8445
X5.7197Y-5.424
X5.7217Y-5.5087
X5.7579Y-5.063
X5.7717Y-4.9528
X5.7756Y-5.0
X5.7815Y-5.2894
X5.8138Y-4.8622
X5.815Y-5.5709
X5.815Y-6.5551
X5.874Y-5.5118
X5.8763Y-6.5305
X5.9055Y-2.0
X5.9055Y-7.8445
X5.9071Y-4.3819
X5.9161Y-3.7622
X5.926Y-3.0736
X5.9272Y-5.0012
X5.9783Y-4.9472
X6.0512Y-4.9173
X6.0512Y-5.5709
X6.0512Y-6.5551
X6.1024Y-2.0
X6.1024Y-7.8445
X6.1134Y-5.3417
X6.1276Y-6.4657
X6.1772Y-5.0394
X6.2067Y-5.2217
X6.2295Y-5.515
X6.2429Y-6.4744
X6.2992Y-2.0
X6.2992Y-7.8445
X6.3319Y-6.2394
X6.3539Y-5.3642
X6.4232Y-5.1319
X6.4406Y-6.124
X6.4961Y-2.0
X6.4961Y-6.2197
X6.4961Y-7.8445
X6.5268Y-3.0626
X6.5339Y-3.1587
X6.5449Y-3.7406
X6.5524Y-4.3819
X6.5685Y-6.1295
X6.5906Y-5.2185
X6.5945Y-6.5551
X6.6024Y-5.5709
X6.6299Y-4.2425
X6.6402Y-5.1354
X6.6614Y-6.4921
X6.6654Y-5.5433
X6.6685Y-6.2469
X6.6736Y-3.628
X6.6929Y-2.0
X6.6929Y-7.8445
X6.7339Y-6.4374
X6.7378Y-5.0354
X6.8165Y-4.9591
X6.8386Y-5.5709
X6.8386Y-6.5551
X6.8594Y-6.4366
X6.8693Y-5.5
X6.8898Y-2.0
X6.8898Y-7.8445
X6.9173Y-6.3748
X7.037Y-5.4689
X7.0693Y-5.5421
X7.0866Y-2.0
X7.0866Y-7.8445
X7.0906Y-3.9291
X7.1453Y-5.5472
X7.1764Y-4.4654
X7.185Y-5.0406
X7.202Y-2.3547
X7.2079Y-2.6319
X7.2205Y-3.3307
X7.2264Y-3.726
X7.2272Y-4.0091
X7.2366Y-4.9862
X7.2512Y-2.3543
X7.2559Y-4.4173
X7.2835Y-2.0
X7.2835Y-7.8445
X7.2898Y-2.3543
X7.2917Y-2.5732
X7.2957Y-2.722
X7.298Y-4.3531
X7.3071Y-4.0906
X7.3106Y-3.815
X7.3335Y-2.3543
X7.3474Y-5.0266
X7.3504Y-4.9766
X7.3514Y-4.9266
X7.3543Y-4.5766
X7.3543Y-4.6766
X7.3543Y-4.7266
X7.3543Y-4.8266
X7.3549Y-4.8766
X7.3553Y-4.7756
X7.3573Y-4.6266
X7.3593Y-5.1811
X7.3701Y-2.6559
X7.378Y-4.2992
X7.3831Y-5.5709
X7.3898Y-6.5551
X7.4173Y-4.3307
X7.4642Y-6.528
X7.4685Y-5.127
X7.4724Y-2.4724
X7.474Y-2.9232
X7.4748Y-3.3291
X7.4803Y-2.0
X7.4803Y-7.8445
X7.4823Y-3.4905
X7.4895Y-3.4568
X7.4931Y-3.3035
X7.503Y-5.5384
X7.5146Y-2.2382
X7.5152Y-3.3555
X7.5198Y-3.441
X7.5268Y-4.7087
X7.5351Y-3.5354
X7.5642Y-2.8614
X7.5702Y-3.3912
X7.5846Y-4.724
X7.626Y-2.0669
X7.626Y-6.5551
X7.6339Y-5.5709
X7.6772Y-2.0
X7.6772Y-7.8445
X7.6996Y-3.0429
X7.7087Y-3.3622
X7.7091Y-4.4402
X7.713Y-3.5524
X7.7205Y-4.8789
X7.7234Y-4.8258
X7.7236Y-4.776
X7.7339Y-6.4413
X7.7996Y-2.7402
X7.8Y-4.324
X7.8012Y-2.8854
X7.8028Y-2.6772
X7.8039Y-2.6142
X7.8169Y-6.4953
X7.8278Y-4.7266
X7.8297Y-4.6266
X7.8297Y-4.6766
X7.8307Y-4.5766
X7.8317Y-5.0768
X7.8415Y-4.9262
X7.8543Y-5.1772
X7.8563Y-2.6531
X7.8579Y-4.4512
X7.8605Y-2.9104
X7.8622Y-2.2756
X7.8631Y-2.9645
X7.8632Y-3.0118
X7.8661Y-2.1063
X7.8701Y-2.8805
X7.874Y-7.8445
X7.8778Y-2.9367
X7.8839Y-2.9882
X7.8888Y-3.0354
X7.8941Y-2.5213
X7.8992Y-2.3965
X7.9213Y-3.0482
X7.9252Y-3.189
X7.9268Y-4.9539
X7.9409Y-2.3425
X7.9488Y-3.0984
X7.9606Y-2.5
X7.9772Y-5.0067
X7.9776Y-3.8004
X7.9811Y-4.3224
X7.9894Y-4.8886
X7.9961Y-2.626
X7.9992Y-3.5484
X8.0039Y-2.437
X8.0133Y-2.9885
X8.0155Y-2.874
X8.0289Y-3.8142
X8.0393Y-2.8533
X8.0411Y-2.7835
X8.0433Y-3.2835
X8.0476Y-3.0689
X8.0579Y-4.9465
X8.058Y-3.8337
X8.0621Y-2.8317
X8.0638Y-2.7594
X8.0709Y-7.8445
X8.0748Y-3.2126
X8.0807Y-2.8063
X8.0827Y-3.0422
X8.0893Y-3.83
X8.0906Y-2.3819
X8.0949Y-6.3744
X8.1142Y-3.3307
X8.1173Y-3.0819
X8.1181Y-3.4409
X8.1226Y-3.841
X8.1339Y-2.7717
X8.1417Y-2.5827
X8.1478Y-3.7772
X8.1492Y-6.4764
X8.1535Y-3.4921
X8.154Y-3.8307
X8.1614Y-3.4332
X8.1622Y-4.7138
X8.1654Y-6.5551
X8.1657Y-3.6953
X8.1693Y-3.9402
X8.1716Y-3.7565
X8.1733Y-3.8058
X8.1772Y-2.437
X8.1772Y-2.9567
X8.1772Y-5.5709
X8.1773Y-2.5827
X8.187Y-3.3691
X8.189Y-3.5413
X8.1965Y-5.2354
X8.2007Y-3.024
X8.2008Y-6.3795
X8.215Y-4.085
X8.2244Y-3.0032
X8.2339Y-2.4681
X8.2362Y-6.4803
X8.2402Y-2.3425
X8.2402Y-5.5118
X8.2478Y-4.3543
X8.2677Y-3.0236
X8.2677Y-7.8445
X8.2717Y-2.9591
X8.2722Y-2.7509
X8.2724Y-4.7303
X8.2787Y-5.1646
X8.2799Y-4.598
X8.2802Y-4.3701
X8.2951Y-3.0392
X8.2985Y-2.9757
X8.315Y-3.4882
X8.315Y-3.9252
X8.3189Y-3.2559
X8.3189Y-3.4213
X8.3193Y-2.5984
X8.3307Y-3.5176
X8.3425Y-3.3189
X8.3429Y-2.628
X8.3504Y-3.252
X8.3534Y-4.3375
X8.3614Y-2.9567
X8.3701Y-2.3937
X8.3757Y-4.3598
X8.376Y-3.3268
X8.3839Y-2.5071
X8.3898Y-3.2126
X8.3902Y-2.6091
X8.3933Y-5.2476
X8.3983Y-3.349
X8.4016Y-4.5315
X8.4102Y-4.6087
X8.4134Y-6.5551
X8.4252Y-5.5709
X8.4291Y-4.5039
X8.4449Y-3.2283
X8.4606Y-2.7923
X8.463Y-2.9572
X8.4638Y-6.4713
X8.4646Y-7.8445
X8.4807Y-5.1665
X8.499Y-2.4541
X8.5Y-2.9921
X8.5016Y-6.3744
X8.5097Y-2.8465
X8.5138Y-3.3858
X8.5236Y-3.0748
X8.5291Y-2.3224
X8.5335Y-3.3189
X8.5374Y-2.6043
X8.5512Y-3.0394
X8.5659Y-3.3031
X8.5756Y-3.1547
X8.5803Y-2.0449
X8.5827Y-3.2756
X8.5984Y-3.7165
X8.611Y-3.4027
X8.6161Y-6.4587
X8.626Y-3.3543
X8.639Y-2.5906
X8.6417Y-3.4173
X8.6495Y-5.229
X8.6496Y-2.7953
X8.6505Y-5.1975
X8.6526Y-2.8366
X8.6614Y-7.8445
X8.6654Y-2.9409
X8.6661Y-2.7337
X8.6791Y-2.5866
X8.6807Y-2.0457
X8.6862Y-3.3267
X8.6898Y-2.8465
X8.6929Y-5.2953
X8.7122Y-2.6406
X8.7126Y-2.9409
X8.714Y-2.784
X8.7217Y-3.1661
X8.7311Y-2.0441
X8.748Y-5.1614
X8.7551Y-2.9843
X8.7638Y-2.739
X8.7657Y-2.8434
X8.7807Y-6.0992
X8.7811Y-2.0433
X8.7831Y-5.5622
X8.7874Y-3.4331
X8.8484Y-2.728
X8.8524Y-3.2677
X8.8583Y-7.8445
X8.8598Y-4.7268
X8.8681Y-2.8295
X8.8689Y-4.5961
X8.8701Y-3.2953
X8.9016Y-3.0591
X8.9209Y-2.2413
X8.928Y-3.328
X8.9406Y-2.152
X8.9512Y-3.1862
X8.9528Y-6.5551
X8.9559Y-4.6996
X8.9614Y-5.5028
X8.9646Y-5.5709
X8.9709Y-6.0957
X8.9764Y-5.2008
X9.0083Y-4.9185
X9.0083Y-5.0346
X9.0114Y-2.9146
X9.0197Y-6.5197
X9.0236Y-5.4882
X9.0551Y-7.8445
X9.0685Y-3.1843
X9.0854Y-3.3551
X9.1118Y-2.602
X9.1169Y-2.4185
X9.1339Y-3.9646
X9.1472Y-2.3378
X9.1547Y-2.5043
X9.1894Y-2.5693
X9.2008Y-5.5709
X9.2008Y-6.5551
X9.248Y-2.7354
X9.252Y-7.8445
X9.2543Y-2.5535
X9.3299Y-2.8339
X9.3551Y-2.2717
X9.3634Y-3.374
X9.3831Y-3.0394
X9.3874Y-3.1327
X9.4177Y-2.7299
X9.4331Y-5.4567
X9.4488Y-7.8445
X9.4831Y-4.6976
X9.4906Y-5.0327
X9.4933Y-3.0425
X9.4965Y-3.3394
X9.4976Y-3.1315
X9.5122Y-2.8224
X9.5937Y-4.6449
X9.6154Y-6.122
X9.6185Y-4.2413
X9.6244Y-5.1724
X9.628Y-4.9949
X9.6457Y-7.8445
X9.6823Y-4.3193
X9.7094Y-5.4732
X9.7134Y-6.1382
X9.7205Y-5.0854
X9.7205Y-5.2268
X9.7512Y-2.6953
X9.752Y-5.5709
X9.752Y-6.5551
X9.7567Y-2.8736
X9.8071Y-6.5197
X9.8138Y-5.5248
X9.8425Y-7.8445
X9.8854Y-2.737
X9.8854Y-4.2126
X9.9343Y-6.4878
X9.9508Y-3.9591
X9.9882Y-5.5709
X9.9882Y-6.5551
X10.013Y-4.2531
X10.0213Y-6.4425
X10.0394Y-2.0
X10.0394Y-7.8445
X10.0409Y-2.1386
X10.074Y-4.0839
X10.0748Y-2.8071
X10.0787Y-2.4874
X10.1063Y-5.3228
X10.1102Y-5.0669
X10.1181Y-2.8071
X10.1185Y-2.4819
X10.1543Y-2.0791
X10.2362Y-2.0
X10.2362Y-7.8445
X10.2661Y-3.9862
X10.2795Y-2.1339
X10.315Y-2.1772
X10.4331Y-2.0
X10.4331Y-7.8445
X10.4665Y-2.4197
X10.6299Y-2.0
X10.6299Y-7.8445
X10.8268Y-2.0
X10.8268Y-7.8445
X11.0236Y-2.0
X11.0236Y-7.8445
X11.0709Y-3.874
X11.1665Y-3.7823
X11.2185Y-3.1516
X11.2205Y-2.0
X11.2205Y-7.8445
X11.2923Y-2.5994
X11.3098Y-3.1646
X11.3622Y-2.3307
X11.4173Y-2.0
X11.4173Y-7.8445
X11.6142Y-1.998
X11.6142Y-7.8445
X11.7224Y-2.0472
X11.7323Y-7.7854
X11.7815Y-2.1654
X11.7815Y-2.3622
X11.7815Y-2.5591
X11.7815Y-2.7559
X11.7815Y-2.9528
X11.7815Y-3.1496
X11.7815Y-3.3465
X11.7815Y-3.5433
X11.7815Y-3.7402
X11.7815Y-3.937
X11.7815Y-4.1339
X11.7815Y-4.3307
X11.7815Y-4.5276
X11.7815Y-4.7244
X11.7815Y-4.9213
X11.7815Y-5.1181
X11.7815Y-5.315
X11.7815Y-5.5118
X11.7815Y-5.7087
X11.7815Y-5.9055
X11.7815Y-6.1024
X11.7815Y-6.2992
X11.7815Y-6.4961
X11.7815Y-6.6929
X11.7815Y-6.8898
X11.7815Y-7.0866
X11.7815Y-7.2835
X11.7815Y-7.4803
X11.7815Y-7.6772
T2
X4.0394Y-2.1654
X4.0394Y-7.6772
X4.067Y-2.0985
X4.067Y-2.2322
X4.067Y-7.6104
X4.067Y-7.744
X4.1339Y-2.0709
X4.1339Y-2.2598
X4.1339Y-7.5827
X4.1339Y-7.7717
X4.2007Y-2.0985
X4.2007Y-2.2322
X4.2007Y-7.6104
X4.2007Y-7.744
X4.2283Y-2.1654
X4.2283Y-7.6772
X6.5328Y-2.1654
X6.5328Y-7.6772
X6.5605Y-2.0985
X6.5605Y-2.2322
X6.5605Y-7.6104
X6.5605Y-7.744
X6.6273Y-2.0709
X6.6273Y-2.2598
X6.6273Y-7.5827
X6.6273Y-7.7717
X6.6941Y-2.0985
X6.6941Y-2.2322
X6.6941Y-7.6104
X6.6941Y-7.744
X6.7218Y-2.1654
X6.7218Y-7.6772
X9.0262Y-2.1654
X9.0262Y-7.6772
X9.0539Y-2.0985
X9.0539Y-2.2322
X9.0539Y-7.6104
X9.0539Y-7.744
X9.1207Y-2.0709
X9.1207Y-2.2598
X9.1207Y-7.5827
X9.1207Y-7.7717
X9.1875Y-2.0985
X9.1875Y-2.2322
X9.1875Y-7.6104
X9.1875Y-7.744
X9.2152Y-2.1654
X9.2152Y-7.6772
X11.5197Y-2.1654
X11.5197Y-7.6772
X11.5474Y-2.0985
X11.5474Y-2.2322
X11.5474Y-7.6104
X11.5474Y-7.744
X11.6142Y-2.0709
X11.6142Y-2.2598
X11.6142Y-7.5827
X11.6142Y-7.7717
X11.681Y-2.0985
X11.681Y-2.2322
X11.681Y-7.6104
X11.681Y-7.744
X11.7087Y-2.1654
X11.7087Y-7.6772
T4
X4.3776Y-5.7283
X4.3776Y-6.7126
X4.5591Y-5.8268
X4.5591Y-5.9843
X4.5591Y-6.811
X4.5591Y-6.9685
X4.6181Y-5.8268
X4.6181Y-5.9843
X4.6181Y-6.811
X4.6181Y-6.9685
X4.6776Y-5.7283
X4.6776Y-6.7126
X5.165Y-5.7283
X5.165Y-6.7126
X5.3465Y-5.8268
X5.3465Y-5.9843
X5.3465Y-6.811
X5.3465Y-6.9685
X5.4055Y-5.8268
X5.4055Y-5.9843
X5.4055Y-6.811
X5.4055Y-6.9685
X5.465Y-5.7283
X5.465Y-6.7126
X5.9524Y-5.7283
X5.9524Y-6.7126
X6.1339Y-5.8268
X6.1339Y-5.9843
X6.1339Y-6.811
X6.1339Y-6.9685
X6.1929Y-5.8268
X6.1929Y-5.9843
X6.1929Y-6.811
X6.1929Y-6.9685
X6.2524Y-5.7283
X6.2524Y-6.7126
X6.7398Y-5.7283
X6.7398Y-6.7126
X6.9213Y-5.8268
X6.9213Y-5.9843
X6.9213Y-6.811
X6.9213Y-6.9685
X6.9803Y-5.8268
X6.9803Y-5.9843
X6.9803Y-6.811
X6.9803Y-6.9685
X7.0398Y-5.7283
X7.0398Y-6.7126
X7.5272Y-5.7283
X7.5272Y-6.7126
X7.7087Y-5.8268
X7.7087Y-5.9843
X7.7087Y-6.811
X7.7087Y-6.9685
X7.7677Y-5.8268
X7.7677Y-5.9843
X7.7677Y-6.811
X7.7677Y-6.9685
X7.8272Y-5.7283
X7.8272Y-6.7126
X8.3146Y-5.7283
X8.3146Y-6.7126
X8.4961Y-5.8268
X8.4961Y-5.9843
X8.4961Y-6.811
X8.4961Y-6.9685
X8.5551Y-5.8268
X8.5551Y-5.9843
X8.5551Y-6.811
X8.5551Y-6.9685
X8.6146Y-5.7283
X8.6146Y-6.7126
X8.6417Y-3.4827
X8.6417Y-4.0827
X8.7417Y-3.4827
X8.7417Y-4.0827
X8.8417Y-3.4827
X8.8417Y-4.0827
X8.9417Y-3.4827
X8.9417Y-4.0827
X9.0417Y-3.4827
X9.0417Y-4.0827
X9.102Y-5.7283
X9.102Y-6.7126
X9.1417Y-3.4827
X9.1417Y-4.0827
X9.2417Y-3.4827
X9.2417Y-4.0827
X9.2835Y-5.8268
X9.2835Y-5.9843
X9.2835Y-6.811
X9.2835Y-6.9685
X9.3417Y-3.4827
X9.3417Y-4.0827
X9.3425Y-5.8268
X9.3425Y-5.9843
X9.3425Y-6.811
X9.3425Y-6.9685
X9.402Y-5.7283
X9.402Y-6.7126
X9.4417Y-3.4827
X9.4417Y-4.0827
X9.5417Y-3.4827
X9.5417Y-4.0827
X9.6417Y-3.4827
X9.6417Y-4.0827
X9.7417Y-3.4827
X9.7417Y-4.0827
X9.8417Y-3.4827
X9.8417Y-4.0827
X9.8894Y-5.7283
X9.8894Y-6.7126
X9.9417Y-3.4827
X9.9417Y-4.0827
X10.0709Y-5.8268
X10.0709Y-5.9843
X10.0709Y-6.811
X10.0709Y-6.9685
X10.1299Y-5.8268
X10.1299Y-5.9843
X10.1299Y-6.811
X10.1299Y-6.9685
X10.1894Y-5.7283
X10.1894Y-6.7126
T5
X4.1807Y-2.9453
X4.1807Y-3.6146
X4.1807Y-4.2445
X4.2807Y-2.9453
X4.2807Y-3.6146
X4.2807Y-4.2445
X4.3807Y-2.6453
X4.3807Y-2.9453
X4.3807Y-3.3146
X4.3807Y-3.6146
X4.3807Y-3.9445
X4.3807Y-4.2445
X4.4807Y-2.9453
X4.4807Y-3.6146
X4.4807Y-4.2445
X5.1969Y-2.6969
X5.1969Y-2.7953
X5.1969Y-2.8937
X5.1969Y-3.3661
X5.1969Y-3.4646
X5.1969Y-3.563
X5.1969Y-3.9961
X5.1969Y-4.0945
X5.1969Y-4.1929
X5.5118Y-2.1654
X5.5118Y-2.2638
X5.5118Y-2.3622
X5.8268Y-2.6969
X5.8268Y-2.7953
X5.8268Y-2.8937
X5.8268Y-3.3661
X5.8268Y-3.4646
X5.8268Y-3.563
X5.8268Y-3.9961
X5.8268Y-4.0945
X5.8268Y-4.1929
X6.1417Y-2.1654
X6.1417Y-2.2638
X6.1417Y-2.3622
X6.4567Y-2.6969
X6.4567Y-2.7953
X6.4567Y-2.8937
X6.4567Y-3.3661
X6.4567Y-3.4646
X6.4567Y-3.563
X6.4567Y-3.9961
X6.4567Y-4.0945
X6.4567Y-4.1929
X7.0866Y-2.6969
X7.0866Y-2.7953
X7.0866Y-2.8937
X7.0866Y-3.3661
X7.0866Y-3.4646
X7.0866Y-3.563
X7.0866Y-3.9961
X7.0866Y-4.0945
X7.0866Y-4.1929
X10.6949Y-3.3346
X10.6949Y-3.4331
X10.6949Y-3.5315
T6
X10.7717Y-3.937
X10.9213Y-3.937
X10.9213Y-7.3819
X11.0709Y-3.937
X11.0709Y-7.3819
X11.2205Y-3.937
T7
X7.7047Y-2.0669
X7.7047Y-2.252
X7.7047Y-2.437
T8
X10.9961Y-4.6417
X10.9961Y-6.6772
T9
X4.1339Y-2.1654
X4.1339Y-7.6772
X6.6273Y-2.1654
X6.6273Y-7.6772
X9.1207Y-2.1654
X9.1207Y-7.6772
X11.6142Y-2.1654
X11.6142Y-7.6772
T3
G00X7.9205Y-2.1161
M15
G01X7.9205Y-2.0925
M16
G05
G00X7.9205Y-2.2906
M15
G01X7.9205Y-2.2472
M16
G05
G00X8.2606Y-2.1161
M15
G01X8.2606Y-2.0925
M16
G05
G00X8.2606Y-2.2906
M15
G01X8.2606Y-2.2472
M16
G05
M30
