%TF.GenerationSoftware,KiCad,Pcbnew,8.0.1-8.0.1-1~ubuntu22.04.1*%
%TF.CreationDate,2024-04-05T09:56:01+02:00*%
%TF.ProjectId,Sequencer,53657175-656e-4636-9572-2e6b69636164,rev?*%
%TF.SameCoordinates,Original*%
%TF.FileFunction,Soldermask,Bot*%
%TF.FilePolarity,Negative*%
%FSLAX46Y46*%
G04 Gerber Fmt 4.6, Leading zero omitted, Abs format (unit mm)*
G04 Created by KiCad (PCBNEW 8.0.1-8.0.1-1~ubuntu22.04.1) date 2024-04-05 09:56:01*
%MOMM*%
%LPD*%
G01*
G04 APERTURE LIST*
%ADD10C,4.000000*%
%ADD11C,1.800000*%
%ADD12C,1.300000*%
%ADD13C,1.512000*%
%ADD14C,0.800000*%
%ADD15C,6.400000*%
%ADD16C,2.006600*%
%ADD17C,2.514600*%
%ADD18C,2.000000*%
%ADD19C,2.500000*%
%ADD20C,0.650000*%
%ADD21O,1.000000X2.100000*%
%ADD22O,1.000000X1.600000*%
%ADD23R,1.600000X2.400000*%
%ADD24O,1.600000X2.400000*%
%ADD25C,1.500000*%
G04 APERTURE END LIST*
D10*
%TO.C,RV516*%
X278650000Y-82800000D03*
X278650000Y-91600000D03*
D11*
X271650000Y-84700000D03*
X271650000Y-87200000D03*
X271650000Y-89700000D03*
%TD*%
D10*
%TO.C,RV511*%
X133000000Y-61900000D03*
X133000000Y-53100000D03*
D11*
X140000000Y-60000000D03*
X140000000Y-57500000D03*
X140000000Y-55000000D03*
%TD*%
D12*
%TO.C,S408*%
X248650000Y-143650000D03*
X248650000Y-156350000D03*
X261350000Y-143650000D03*
X261350000Y-156350000D03*
D13*
X251190000Y-145500000D03*
X258810000Y-145500000D03*
X255800000Y-152000000D03*
X257300000Y-152000000D03*
X257300000Y-148000000D03*
X255800000Y-148000000D03*
%TD*%
D14*
%TO.C,H102*%
X165933333Y-55000000D03*
X166636277Y-53302944D03*
X166636277Y-56697056D03*
X168333333Y-52600000D03*
D15*
X168333333Y-55000000D03*
D14*
X168333333Y-57400000D03*
X170030389Y-53302944D03*
X170030389Y-56697056D03*
X170733333Y-55000000D03*
%TD*%
%TO.C,H104*%
X292600000Y-55000000D03*
X293302944Y-53302944D03*
X293302944Y-56697056D03*
X295000000Y-52600000D03*
D15*
X295000000Y-55000000D03*
D14*
X295000000Y-57400000D03*
X296697056Y-53302944D03*
X296697056Y-56697056D03*
X297400000Y-55000000D03*
%TD*%
D16*
%TO.C,RV514*%
X281200000Y-100000000D03*
X285000000Y-100000000D03*
X281200000Y-187500004D03*
X277400000Y-100000000D03*
X273600000Y-100000000D03*
X277400000Y-187500004D03*
D17*
X279299999Y-117900003D03*
X279299999Y-169600002D03*
%TD*%
D14*
%TO.C,H107*%
X229266667Y-195000000D03*
X229969611Y-193302944D03*
X229969611Y-196697056D03*
X231666667Y-192600000D03*
D15*
X231666667Y-195000000D03*
D14*
X231666667Y-197400000D03*
X233363723Y-193302944D03*
X233363723Y-196697056D03*
X234066667Y-195000000D03*
%TD*%
D10*
%TO.C,RV505*%
X125000000Y-92400000D03*
X125000000Y-83600000D03*
D11*
X132000000Y-90500000D03*
X132000000Y-88000000D03*
X132000000Y-85500000D03*
%TD*%
D12*
%TO.C,S416*%
X248650000Y-168650000D03*
X248650000Y-181350000D03*
X261350000Y-168650000D03*
X261350000Y-181350000D03*
D13*
X251190000Y-170500000D03*
X258810000Y-170500000D03*
X255800000Y-177000000D03*
X257300000Y-177000000D03*
X257300000Y-173000000D03*
X255800000Y-173000000D03*
%TD*%
D12*
%TO.C,S409*%
X108650000Y-168650000D03*
X108650000Y-181350000D03*
X121350000Y-168650000D03*
X121350000Y-181350000D03*
D13*
X111190000Y-170500000D03*
X118810000Y-170500000D03*
X115800000Y-177000000D03*
X117300000Y-177000000D03*
X117300000Y-173000000D03*
X115800000Y-173000000D03*
%TD*%
D10*
%TO.C,RV507*%
X157000000Y-92400000D03*
X157000000Y-83600000D03*
D11*
X164000000Y-90500000D03*
X164000000Y-88000000D03*
X164000000Y-85500000D03*
%TD*%
D10*
%TO.C,RV512*%
X141000000Y-108400000D03*
X141000000Y-99600000D03*
D11*
X148000000Y-106500000D03*
X148000000Y-104000000D03*
X148000000Y-101500000D03*
%TD*%
D12*
%TO.C,S415*%
X228650000Y-168650000D03*
X228650000Y-181350000D03*
X241350000Y-168650000D03*
X241350000Y-181350000D03*
D13*
X231190000Y-170500000D03*
X238810000Y-170500000D03*
X235800000Y-177000000D03*
X237300000Y-177000000D03*
X237300000Y-173000000D03*
X235800000Y-173000000D03*
%TD*%
D18*
%TO.C,SW401*%
X113810000Y-91810000D03*
X111270000Y-91810000D03*
X108730000Y-91810000D03*
X106190000Y-91810000D03*
X111270000Y-84190000D03*
%TD*%
D12*
%TO.C,S401*%
X108650000Y-143650000D03*
X108650000Y-156350000D03*
X121350000Y-143650000D03*
X121350000Y-156350000D03*
D13*
X111190000Y-145500000D03*
X118810000Y-145500000D03*
X115800000Y-152000000D03*
X117300000Y-152000000D03*
X117300000Y-148000000D03*
X115800000Y-148000000D03*
%TD*%
D18*
%TO.C,SW402*%
X113810000Y-74810000D03*
X111270000Y-74810000D03*
X108730000Y-74810000D03*
X106190000Y-74810000D03*
X111270000Y-67190000D03*
%TD*%
D12*
%TO.C,S412*%
X168650000Y-168650000D03*
X168650000Y-181350000D03*
X181350000Y-168650000D03*
X181350000Y-181350000D03*
D13*
X171190000Y-170500000D03*
X178810000Y-170500000D03*
X175800000Y-177000000D03*
X177300000Y-177000000D03*
X177300000Y-173000000D03*
X175800000Y-173000000D03*
%TD*%
D10*
%TO.C,RV510*%
X125000000Y-108400000D03*
X125000000Y-99600000D03*
D11*
X132000000Y-106500000D03*
X132000000Y-104000000D03*
X132000000Y-101500000D03*
%TD*%
D12*
%TO.C,S405*%
X188650000Y-143650000D03*
X188650000Y-156350000D03*
X201350000Y-143650000D03*
X201350000Y-156350000D03*
D13*
X191190000Y-145500000D03*
X198810000Y-145500000D03*
X195800000Y-152000000D03*
X197300000Y-152000000D03*
X197300000Y-148000000D03*
X195800000Y-148000000D03*
%TD*%
D12*
%TO.C,S407*%
X228650000Y-143650000D03*
X228650000Y-156350000D03*
X241350000Y-143650000D03*
X241350000Y-156350000D03*
D13*
X231190000Y-145500000D03*
X238810000Y-145500000D03*
X235800000Y-152000000D03*
X237300000Y-152000000D03*
X237300000Y-148000000D03*
X235800000Y-148000000D03*
%TD*%
D12*
%TO.C,S414*%
X208650000Y-168650000D03*
X208650000Y-181350000D03*
X221350000Y-168650000D03*
X221350000Y-181350000D03*
D13*
X211190000Y-170500000D03*
X218810000Y-170500000D03*
X215800000Y-177000000D03*
X217300000Y-177000000D03*
X217300000Y-173000000D03*
X215800000Y-173000000D03*
%TD*%
D14*
%TO.C,H101*%
X102600000Y-55000000D03*
X103302944Y-53302944D03*
X103302944Y-56697056D03*
X105000000Y-52600000D03*
D15*
X105000000Y-55000000D03*
D14*
X105000000Y-57400000D03*
X106697056Y-53302944D03*
X106697056Y-56697056D03*
X107400000Y-55000000D03*
%TD*%
D10*
%TO.C,RV501*%
X125000000Y-75400000D03*
X125000000Y-66600000D03*
D11*
X132000000Y-73500000D03*
X132000000Y-71000000D03*
X132000000Y-68500000D03*
%TD*%
D10*
%TO.C,RV506*%
X141000000Y-92400000D03*
X141000000Y-83600000D03*
D11*
X148000000Y-90500000D03*
X148000000Y-88000000D03*
X148000000Y-85500000D03*
%TD*%
D12*
%TO.C,S403*%
X148650000Y-143650000D03*
X148650000Y-156350000D03*
X161350000Y-143650000D03*
X161350000Y-156350000D03*
D13*
X151190000Y-145500000D03*
X158810000Y-145500000D03*
X155800000Y-152000000D03*
X157300000Y-152000000D03*
X157300000Y-148000000D03*
X155800000Y-148000000D03*
%TD*%
D14*
%TO.C,H106*%
X165933333Y-195000000D03*
X166636277Y-193302944D03*
X166636277Y-196697056D03*
X168333333Y-192600000D03*
D15*
X168333333Y-195000000D03*
D14*
X168333333Y-197400000D03*
X170030389Y-193302944D03*
X170030389Y-196697056D03*
X170733333Y-195000000D03*
%TD*%
D10*
%TO.C,RV502*%
X141000000Y-75400000D03*
X141000000Y-66600000D03*
D11*
X148000000Y-73500000D03*
X148000000Y-71000000D03*
X148000000Y-68500000D03*
%TD*%
D14*
%TO.C,H105*%
X102600000Y-195000000D03*
X103302944Y-193302944D03*
X103302944Y-196697056D03*
X105000000Y-192600000D03*
D15*
X105000000Y-195000000D03*
D14*
X105000000Y-197400000D03*
X106697056Y-193302944D03*
X106697056Y-196697056D03*
X107400000Y-195000000D03*
%TD*%
D12*
%TO.C,S404*%
X168650000Y-143650000D03*
X168650000Y-156350000D03*
X181350000Y-143650000D03*
X181350000Y-156350000D03*
D13*
X171190000Y-145500000D03*
X178810000Y-145500000D03*
X175800000Y-152000000D03*
X177300000Y-152000000D03*
X177300000Y-148000000D03*
X175800000Y-148000000D03*
%TD*%
D12*
%TO.C,S402*%
X128650000Y-143650000D03*
X128650000Y-156350000D03*
X141350000Y-143650000D03*
X141350000Y-156350000D03*
D13*
X131190000Y-145500000D03*
X138810000Y-145500000D03*
X135800000Y-152000000D03*
X137300000Y-152000000D03*
X137300000Y-148000000D03*
X135800000Y-148000000D03*
%TD*%
D12*
%TO.C,S411*%
X148650000Y-168650000D03*
X148650000Y-181350000D03*
X161350000Y-168650000D03*
X161350000Y-181350000D03*
D13*
X151190000Y-170500000D03*
X158810000Y-170500000D03*
X155800000Y-177000000D03*
X157300000Y-177000000D03*
X157300000Y-173000000D03*
X155800000Y-173000000D03*
%TD*%
D12*
%TO.C,S410*%
X128650000Y-168650000D03*
X128650000Y-181350000D03*
X141350000Y-168650000D03*
X141350000Y-181350000D03*
D13*
X131190000Y-170500000D03*
X138810000Y-170500000D03*
X135800000Y-177000000D03*
X137300000Y-177000000D03*
X137300000Y-173000000D03*
X135800000Y-173000000D03*
%TD*%
D10*
%TO.C,RV515*%
X173000000Y-108400000D03*
X173000000Y-99600000D03*
D11*
X180000000Y-106500000D03*
X180000000Y-104000000D03*
X180000000Y-101500000D03*
%TD*%
D12*
%TO.C,S413*%
X188650000Y-168650000D03*
X188650000Y-181350000D03*
X201350000Y-168650000D03*
X201350000Y-181350000D03*
D13*
X191190000Y-170500000D03*
X198810000Y-170500000D03*
X195800000Y-177000000D03*
X197300000Y-177000000D03*
X197300000Y-173000000D03*
X195800000Y-173000000D03*
%TD*%
D19*
%TO.C,SW601*%
X195700000Y-61900000D03*
X195700000Y-57200000D03*
X195700000Y-52500000D03*
%TD*%
D10*
%TO.C,RV504*%
X173000000Y-75400000D03*
X173000000Y-66600000D03*
D11*
X180000000Y-73500000D03*
X180000000Y-71000000D03*
X180000000Y-68500000D03*
%TD*%
D10*
%TO.C,RV509*%
X149000000Y-61900000D03*
X149000000Y-53100000D03*
D11*
X156000000Y-60000000D03*
X156000000Y-57500000D03*
X156000000Y-55000000D03*
%TD*%
D14*
%TO.C,H103*%
X229266667Y-55000000D03*
X229969611Y-53302944D03*
X229969611Y-56697056D03*
X231666667Y-52600000D03*
D15*
X231666667Y-55000000D03*
D14*
X231666667Y-57400000D03*
X233363723Y-53302944D03*
X233363723Y-56697056D03*
X234066667Y-55000000D03*
%TD*%
D20*
%TO.C,J601*%
X208390000Y-57100000D03*
X202610000Y-57100000D03*
D21*
X209820000Y-57630000D03*
D22*
X209820000Y-53450000D03*
D21*
X201180000Y-57630000D03*
D22*
X201180000Y-53450000D03*
%TD*%
D23*
%TO.C,U201*%
X252520000Y-88460000D03*
D24*
X249980000Y-88460000D03*
X247440000Y-88460000D03*
X244900000Y-88460000D03*
X242360000Y-88460000D03*
X239820000Y-88460000D03*
X237280000Y-88460000D03*
X234740000Y-88460000D03*
X232200000Y-88460000D03*
X229660000Y-88460000D03*
X227120000Y-88460000D03*
X224580000Y-88460000D03*
X222040000Y-88460000D03*
X219500000Y-88460000D03*
X219500000Y-103700000D03*
X222040000Y-103700000D03*
X224580000Y-103700000D03*
X227120000Y-103700000D03*
X229660000Y-103700000D03*
X232200000Y-103700000D03*
X234740000Y-103700000D03*
X237280000Y-103700000D03*
X239820000Y-103700000D03*
X242360000Y-103700000D03*
X244900000Y-103700000D03*
X247440000Y-103700000D03*
X249980000Y-103700000D03*
X252520000Y-103700000D03*
%TD*%
D10*
%TO.C,RV513*%
X157000000Y-108400000D03*
X157000000Y-99600000D03*
D11*
X164000000Y-106500000D03*
X164000000Y-104000000D03*
X164000000Y-101500000D03*
%TD*%
D14*
%TO.C,H108*%
X292600000Y-195000000D03*
X293302944Y-193302944D03*
X293302944Y-196697056D03*
X295000000Y-192600000D03*
D15*
X295000000Y-195000000D03*
D14*
X295000000Y-197400000D03*
X296697056Y-193302944D03*
X296697056Y-196697056D03*
X297400000Y-195000000D03*
%TD*%
D10*
%TO.C,RV503*%
X157000000Y-75400000D03*
X157000000Y-66600000D03*
D11*
X164000000Y-73500000D03*
X164000000Y-71000000D03*
X164000000Y-68500000D03*
%TD*%
D18*
%TO.C,SW403*%
X113810000Y-107810000D03*
X111270000Y-107810000D03*
X108730000Y-107810000D03*
X106190000Y-107810000D03*
X111270000Y-100190000D03*
%TD*%
D12*
%TO.C,S406*%
X208650000Y-143650000D03*
X208650000Y-156350000D03*
X221350000Y-143650000D03*
X221350000Y-156350000D03*
D13*
X211190000Y-145500000D03*
X218810000Y-145500000D03*
X215800000Y-152000000D03*
X217300000Y-152000000D03*
X217300000Y-148000000D03*
X215800000Y-148000000D03*
%TD*%
D10*
%TO.C,RV508*%
X173000000Y-92400000D03*
X173000000Y-83600000D03*
D11*
X180000000Y-90500000D03*
X180000000Y-88000000D03*
X180000000Y-85500000D03*
%TD*%
D25*
%TO.C,J101*%
X298300000Y-64200000D03*
X291300000Y-64200000D03*
%TD*%
M02*
